<?xml version="1.0" standalone="no"?>
<!DOCTYPE svg PUBLIC "-//W3C//DTD SVG 20010904//EN"
 "http://www.w3.org/TR/2001/REC-SVG-20010904/DTD/svg10.dtd">
<svg version="1.0" xmlns="http://www.w3.org/2000/svg"
 width="1280.000000pt" height="640.000000pt" viewBox="0 0 1280.000000 640.000000"
 preserveAspectRatio="xMidYMid meet">
<g transform="translate(0.000000,640.000000) scale(0.100000,-0.100000)"
fill="#000000" stroke="none">
<path d="M2111 4934 c-207 -55 -435 -318 -717 -825 -49 -87 -92 -159 -96 -159
-4 0 -26 37 -49 83 -246 490 -461 793 -611 862 -51 23 -76 27 -240 35 -248 13
-398 13 -398 0 0 -6 28 -43 63 -83 165 -191 334 -481 597 -1028 l121 -251 -3
-361 -3 -362 -127 -260 c-287 -587 -442 -852 -599 -1028 -32 -36 -49 -64 -49
-81 l0 -26 173 0 c94 1 229 5 298 9 156 10 198 29 314 146 125 124 261 342
491 785 16 30 33 54 39 54 5 -1 50 -74 100 -162 270 -480 471 -717 674 -796
79 -31 541 -46 831 -27 159 10 202 30 315 145 126 126 271 358 486 776 19 36
39 64 44 64 6 -1 49 -71 96 -155 248 -445 443 -686 632 -779 l82 -41 165 -9
c202 -11 463 -12 630 -1 159 10 202 30 315 145 126 127 254 332 486 775 19 35
39 64 44 64 6 0 47 -67 93 -148 296 -531 525 -783 746 -824 86 -16 576 -25
746 -13 171 11 210 26 310 119 135 124 279 351 506 793 22 41 43 74 49 74 5
-1 50 -73 99 -160 288 -516 522 -773 740 -813 86 -16 576 -25 746 -13 183 11
218 27 340 151 125 126 242 309 432 676 46 88 87 159 93 159 5 -1 56 -83 112
-182 285 -506 511 -751 727 -791 63 -12 588 -13 711 -2 69 6 70 6 73 37 3 30
1 32 -73 59 -41 15 -80 35 -85 45 -6 12 -10 586 -10 1588 0 1482 1 1570 17
1584 16 13 92 46 146 62 14 5 16 13 11 48 -4 24 -9 45 -11 48 -3 3 -185 5
-406 5 l-402 0 -68 -32 c-204 -97 -403 -338 -657 -795 -51 -93 -97 -168 -101
-168 -4 0 -48 78 -97 173 -184 355 -298 532 -422 658 -92 93 -143 125 -224
140 -152 27 -206 30 -534 27 l-347 -3 -68 -32 c-152 -72 -294 -217 -465 -474
-70 -106 -205 -335 -256 -436 -14 -29 -30 -53 -35 -53 -5 0 -50 78 -99 173
-184 355 -298 532 -422 658 -92 93 -143 125 -224 140 -152 27 -206 30 -535 27
l-348 -3 -87 -43 c-192 -96 -399 -353 -651 -809 -44 -79 -83 -143 -87 -143 -4
0 -30 44 -57 98 -192 383 -359 643 -491 765 -92 86 -118 96 -305 127 -27 5
-201 9 -385 9 -376 1 -403 -2 -511 -65 -83 -48 -233 -200 -331 -335 -85 -116
-198 -299 -298 -481 -35 -65 -68 -118 -72 -118 -4 0 -32 48 -62 108 -88 176
-231 427 -308 540 -82 122 -212 259 -276 291 -41 21 -78 30 -207 51 -27 5
-203 9 -390 9 -266 0 -352 -3 -394 -15z m419 -1738 c0 -806 -4 -1377 -9 -1380
-21 -13 -196 204 -338 417 l-93 140 0 812 0 812 76 119 c120 189 327 454 355
454 5 0 9 -567 9 -1374z m2450 -6 c0 -828 -4 -1371 -9 -1375 -22 -13 -250 274
-369 465 l-62 99 0 808 0 808 68 108 c127 203 341 475 363 461 5 -3 9 -560 9
-1374z m2450 0 c0 -860 -4 -1380 -9 -1380 -28 0 -244 275 -362 460 l-69 109 0
808 0 808 68 108 c115 184 335 467 363 467 5 0 9 -547 9 -1380z m2450 6 c0
-838 -4 -1377 -9 -1381 -21 -13 -196 206 -345 431 l-86 131 0 809 0 809 75
119 c118 186 328 456 356 456 5 0 9 -544 9 -1374z m2450 -6 c0 -808 -4 -1380
-9 -1380 -10 0 -96 96 -175 195 -27 33 -95 130 -152 216 l-104 155 0 810 0
811 90 137 c140 213 314 436 341 436 5 0 9 -535 9 -1380z m-9432 1055 c49 -93
144 -284 211 -422 l121 -253 0 -354 0 -355 -129 -268 c-125 -259 -282 -565
-303 -590 -6 -7 -14 -10 -19 -7 -11 6 -12 2427 -2 2438 12 12 29 -15 121 -189z
m2452 -5 c51 -96 146 -286 211 -422 l119 -247 0 -355 0 -355 -129 -268 c-125
-260 -281 -563 -302 -590 -6 -7 -15 -10 -20 -7 -11 6 -12 2427 -2 2438 12 12
30 -16 123 -194z m2455 -7 c52 -100 147 -290 210 -421 l115 -240 0 -356 0
-356 -116 -242 c-117 -246 -258 -522 -301 -591 -13 -21 -28 -35 -33 -32 -11 7
-14 2427 -3 2439 12 12 30 -16 128 -201z m2454 -8 c55 -104 150 -294 211 -421
l110 -232 0 -356 0 -355 -111 -233 c-111 -235 -262 -531 -306 -601 -13 -21
-28 -35 -33 -32 -11 7 -14 2427 -3 2439 12 12 30 -16 132 -209z m-8399 -1041
c0 -274 -3 -355 -12 -352 -12 4 -158 277 -177 329 -8 23 -1 45 44 137 69 144
124 242 136 242 5 0 9 -148 9 -356z m2450 0 c0 -276 -3 -355 -12 -352 -7 3
-52 81 -100 175 l-88 171 46 99 c61 132 134 263 145 263 5 0 9 -146 9 -356z
m2450 0 c0 -274 -3 -355 -12 -352 -7 3 -52 81 -100 176 l-87 171 45 97 c63
135 134 264 145 264 5 0 9 -149 9 -356z m2450 0 c0 -272 -3 -355 -12 -352 -14
5 -178 325 -178 349 0 31 165 359 180 359 6 0 10 -129 10 -356z m2450 0 c0
-268 -3 -355 -12 -352 -14 5 -177 326 -178 351 0 23 168 357 180 357 6 0 10
-127 10 -356z"/>
</g>
</svg>
